<svg xmlns="http://www.w3.org/2000/svg" width="512" height="512" xml:space="preserve"><g><path fill="#4FB463" d="M266.639 128.505c-1.276-15.979-8.789-32.462-21.152-46.413-12.364-13.951-27.825-23.389-43.534-26.577-16.217-3.29-31.364.408-42.656 10.416a2 2 0 0 0-.171 2.823l11.054 12.473a1.996 1.996 0 0 0 2.823.17l14.541-12.886 9.19 10.37-14.54 12.887a1.997 1.997 0 0 0-.171 2.823l7.106 8.018a2 2 0 0 0 2.823.17l14.541-12.886 9.19 10.371-14.54 12.886a1.997 1.997 0 0 0-.171 2.823l7.106 8.019a2 2 0 0 0 2.823.17l14.541-12.886 9.19 10.371-14.54 12.886a1.997 1.997 0 0 0-.171 2.823l7.106 8.019c.353.397.848.638 1.377.67a1.99 1.99 0 0 0 1.446-.5l14.54-12.886 9.631 10.867-8.121 16.688a1.999 1.999 0 0 0-.114 1.459l2.144 7.015a2.003 2.003 0 0 0 3.239.913c11.294-10.007 16.787-24.602 15.47-41.096z"/><path fill="#4FB463" d="M352.704 65.932c-11.29-10.008-26.438-13.706-42.656-10.416-15.709 3.188-31.17 12.626-43.534 26.577-12.363 13.951-19.876 30.434-21.152 46.413-1.317 16.494 4.176 31.088 15.468 41.095a1.996 1.996 0 0 0 1.803.445 2.002 2.002 0 0 0 1.393-1.229l2.676-7.015a2.003 2.003 0 0 0-.092-1.63L258 143.5l9.607-10.841 14.54 12.886c.396.352.92.534 1.446.5a2.005 2.005 0 0 0 1.377-.67l7.106-8.019a1.998 1.998 0 0 0-.171-2.823l-14.54-12.886 9.19-10.371 14.541 12.886a2 2 0 0 0 2.823-.17l7.106-8.019a1.998 1.998 0 0 0-.171-2.823l-14.54-12.886 9.19-10.371 14.541 12.886a2 2 0 0 0 2.823-.17l7.106-8.018a1.998 1.998 0 0 0-.171-2.823l-14.54-12.887 9.19-10.37 14.541 12.886a2 2 0 0 0 2.823-.17l11.054-12.473c.736-.826.66-2.09-.167-2.822z"/><g fill="#62E07B"><path d="m293.24 117.2 7.858 6.963a2 2 0 0 0 2.823-.17l7.106-8.019c.133-.15.233-.323.315-.502-6.33-.124-12.405.472-18.102 1.728zM200.658 115.472c.082.18.182.352.315.503l7.106 8.019a2 2 0 0 0 2.823.17l7.858-6.964c-5.697-1.256-11.772-1.852-18.102-1.728zM256 144.457c-4.633-9.551-12.426-17.026-22.28-22l-13.626 12.077a1.997 1.997 0 0 0-.171 2.823l3.982 4.493 12.766-3.504.458.751 7.263-6.437.795.897c.036 7.149 1.394 13.866 3.995 19.916l-1.458 2.996.413.677a2 2 0 0 0 2.521.786l5.342-2.378 5.342 2.378c.921.41 1.998.073 2.521-.786l.641-1.051-1.539-2.98c2.502-5.958 3.812-12.549 3.848-19.558l.795-.897 7.263 6.437.458-.751 12.766 3.504 3.982-4.493a1.998 1.998 0 0 0-.171-2.823l-13.626-12.077c-9.854 4.974-17.647 12.449-22.28 22z"/></g><path fill="#4FB463" d="M258.971 164.371c-8.117-29.569-42.954-43.985-81.027-33.534-38.077 10.452-60.671 40.631-52.556 70.2a2.006 2.006 0 0 0 1.928 1.471c.178 0 .355-.023.529-.071l16.072-4.412a2 2 0 0 0 1.399-2.458l-5.143-18.735 13.363-3.668 5.143 18.735a1.998 1.998 0 0 0 2.458 1.399l10.332-2.836a2 2 0 0 0 1.399-2.458l-5.143-18.735 13.362-3.668 5.143 18.735a2.002 2.002 0 0 0 2.458 1.399l10.332-2.836a2 2 0 0 0 1.399-2.458l-5.143-18.735 13.363-3.668 5.143 18.735a2 2 0 0 0 2.458 1.399l10.332-2.836a2 2 0 0 0 1.399-2.458l-5.143-18.735 13.839-3.799 11.467 18.8a2 2 0 0 0 2.521.786l7.197-3.204a1.996 1.996 0 0 0 1.119-2.355z"/><path fill="#4FB463" d="M334.057 130.837c-38.073-10.45-72.911 3.965-81.027 33.534a1.998 1.998 0 0 0 1.115 2.356l7.197 3.204c.921.41 1.998.073 2.521-.786l11.467-18.8 13.839 3.799-5.143 18.735a2 2 0 0 0 1.399 2.458l10.332 2.836a2 2 0 0 0 2.458-1.399l5.143-18.735 13.363 3.668-5.143 18.735a2 2 0 0 0 1.399 2.458l10.332 2.836a2.001 2.001 0 0 0 2.458-1.399l5.143-18.735 13.362 3.668-5.143 18.735a2 2 0 0 0 1.399 2.458l10.332 2.836a1.998 1.998 0 0 0 2.458-1.399l5.143-18.735 13.363 3.668-5.143 18.735a2 2 0 0 0 1.399 2.458l16.072 4.412a1.988 1.988 0 0 0 1.518-.191c.461-.263.799-.697.939-1.209 8.119-29.57-14.475-59.749-52.552-70.201z"/><path fill="#B56D3B" d="M266.648 298.198c-.543.956-1.888 1.739-2.988 1.739h-15.32c-1.1 0-2.445-.783-2.988-1.739l-7.683-13.522c-.543-.956-.088-1.739 1.012-1.739h34.638c1.1 0 1.555.783 1.012 1.739l-7.683 13.522z"/><path fill="#8A532D" d="M266.529 281.136c-.478.991-1.77 1.801-2.87 1.801H248.34c-1.1 0-2.391-.81-2.87-1.801l-7.92-16.398c-.478-.991.03-1.801 1.13-1.801h34.638c1.1 0 1.609.81 1.13 1.801l-7.919 16.398z"/><path fill="#B56D3B" d="M266.605 261.175c-.52.969-1.846 1.762-2.946 1.762H248.34c-1.1 0-2.426-.793-2.946-1.762l-7.768-14.475c-.52-.969-.046-1.762 1.054-1.762h34.638c1.1 0 1.574.793 1.054 1.762l-7.767 14.475z"/><path fill="#8A532D" d="M266.648 243.198c-.543.956-1.888 1.739-2.988 1.739h-15.32c-1.1 0-2.445-.783-2.988-1.739l-7.683-13.522c-.543-.956-.088-1.739 1.012-1.739h34.638c1.1 0 1.555.783 1.012 1.739l-7.683 13.522z"/><path fill="#B56D3B" d="M266.648 226.198c-.543.956-1.888 1.739-2.988 1.739h-15.32c-1.1 0-2.445-.783-2.988-1.739l-7.683-13.522c-.543-.956-.088-1.739 1.012-1.739h34.638c1.1 0 1.555.783 1.012 1.739l-7.683 13.522z"/><path fill="#8A532D" d="M266.529 209.136c-.478.991-1.77 1.801-2.87 1.801H248.34c-1.1 0-2.391-.81-2.87-1.801l-7.92-16.398c-.478-.991.03-1.801 1.13-1.801h34.638c1.1 0 1.609.81 1.13 1.801l-7.919 16.398z"/><path fill="#B56D3B" d="M266.648 189.198c-.543.956-1.888 1.739-2.988 1.739h-15.32c-1.1 0-2.445-.783-2.988-1.739l-7.683-13.522c-.543-.956-.088-1.739 1.012-1.739h34.638c1.1 0 1.555.783 1.012 1.739l-7.683 13.522z"/><path fill="#8A532D" d="M266.648 172.198c-.543.956-1.888 1.739-2.988 1.739h-15.32c-1.1 0-2.445-.783-2.988-1.739l-7.683-13.522c-.543-.956-.088-1.739 1.012-1.739h34.638c1.1 0 1.555.783 1.012 1.739l-7.683 13.522z"/><path fill="#B56D3B" d="M266.648 441.198c-.543.956-1.888 1.739-2.988 1.739h-15.32c-1.1 0-2.445-.783-2.988-1.739l-7.683-13.522c-.543-.956-.088-1.739 1.012-1.739h34.638c1.1 0 1.555.783 1.012 1.739l-7.683 13.522z"/><path fill="#8A532D" d="M266.529 424.136c-.478.991-1.77 1.801-2.87 1.801H248.34c-1.1 0-2.391-.81-2.87-1.801l-7.92-16.398c-.478-.991.03-1.801 1.13-1.801h34.638c1.1 0 1.609.81 1.13 1.801l-7.919 16.398z"/><path fill="#B56D3B" d="M266.648 404.198c-.543.956-1.888 1.739-2.988 1.739h-15.32c-1.1 0-2.445-.783-2.988-1.739l-7.683-13.522c-.543-.956-.088-1.739 1.012-1.739h34.638c1.1 0 1.555.783 1.012 1.739l-7.683 13.522z"/><path fill="#8A532D" d="M266.605 387.175c-.52.969-1.846 1.762-2.946 1.762H248.34c-1.1 0-2.426-.793-2.946-1.762l-7.768-14.475c-.52-.969-.046-1.762 1.054-1.762h34.638c1.1 0 1.574.793 1.054 1.762l-7.767 14.475z"/><path fill="#B56D3B" d="M266.648 369.198c-.543.956-1.888 1.739-2.988 1.739h-15.32c-1.1 0-2.445-.783-2.988-1.739l-7.683-13.522c-.543-.956-.088-1.739 1.012-1.739h34.638c1.1 0 1.555.783 1.012 1.739l-7.683 13.522z"/><path fill="#8A532D" d="M266.529 352.136c-.478.991-1.77 1.801-2.87 1.801H248.34c-1.1 0-2.391-.81-2.87-1.801l-7.92-16.398c-.478-.991.03-1.801 1.13-1.801h34.638c1.1 0 1.609.81 1.13 1.801l-7.919 16.398z"/><path fill="#B56D3B" d="M266.648 332.198c-.543.956-1.888 1.739-2.988 1.739h-15.32c-1.1 0-2.445-.783-2.988-1.739l-7.683-13.522c-.543-.956-.088-1.739 1.012-1.739h34.638c1.1 0 1.555.783 1.012 1.739l-7.683 13.522z"/><path fill="#8A532D" d="M266.648 315.198c-.543.956-1.888 1.739-2.988 1.739h-15.32c-1.1 0-2.445-.783-2.988-1.739l-7.683-13.522c-.543-.956-.088-1.739 1.012-1.739h34.638c1.1 0 1.555.783 1.012 1.739l-7.683 13.522z"/><path fill="#FFD161" d="M331.666 454.082c-1.892-.804-46.659-19.682-75.252-19.682-28.579 0-74.135 18.87-76.06 19.673-1.097.458-1.608 1.346-1.252 2.178.356.831 1.493 1.404 2.786 1.404h148.223c1.289 0 2.423-.569 2.783-1.397.361-.827-.14-1.714-1.228-2.176z"/></g></svg>